<svg id="Layer_1" data-name="Layer 1" xmlns="http://www.w3.org/2000/svg" viewBox="0 0 567.65 566.87"><title>cart)</title><path d="M1078.32,792.52h-29.45L917.25,582.24a38.92,38.92,0,0,0,3.88-16.45c0-20.92-15.87-37.79-35.48-37.79s-35.47,16.87-35.47,37.79,15.88,37.79,35.47,37.79c.73,0,1.35-.4,2-.44l118.56,189.39H694.11L812.63,603.13c.73,0,1.33.44,2.06.44,19.59,0,35.48-16.89,35.48-37.79S834.29,528,814.7,528s-35.48,16.87-35.48,37.79a38.81,38.81,0,0,0,3.88,16.41L651.46,792.52H622c-41.83,0-65.22,34.64-52,76.88l66,170.31c13.22,42.27,58.26,55.16,100.07,55.16H964.23c41.82,0,86.86-12.88,100.13-55.16l65.93-170.31C1143.56,827.16,1120.1,792.52,1078.32,792.52ZM708.26,1000.37c0,10.47-7.93,18.91-17.74,18.91s-17.74-8.44-17.74-18.91V887c0-10.45,7.93-18.93,17.74-18.93s17.74,8.47,17.74,18.93Zm106.44,0c0,10.47-7.94,18.91-17.74,18.91s-17.74-8.44-17.74-18.91V887c0-10.45,7.94-18.93,17.74-18.93S814.7,876.57,814.7,887Zm106.43,0c0,10.47-7.93,18.91-17.74,18.91s-17.74-8.44-17.74-18.91V887c0-10.45,7.94-18.93,17.74-18.93s17.74,8.47,17.74,18.93Zm106.44,0c0,10.47-7.93,18.91-17.74,18.91s-17.74-8.44-17.74-18.91V887c0-10.45,7.94-18.93,17.74-18.93s17.74,8.47,17.74,18.93Z" transform="translate(-566.35 -528)"/></svg>